<svg width="20" height="21" viewBox="0 0 20 21" fill="none" xmlns="http://www.w3.org/2000/svg">
    <path d="M9.4001 8.44167L7.34177 10.5L9.4001 12.5583C9.48237 12.6347 9.54251 12.7319 9.57419 12.8396C9.60587 12.9473 9.60791 13.0616 9.5801 13.1703C9.55229 13.2791 9.49566 13.3784 9.41617 13.4577C9.33668 13.5369 9.23728 13.5933 9.12843 13.6208C9.01978 13.6486 8.90567 13.6466 8.79805 13.6151C8.69043 13.5836 8.59327 13.5237 8.51677 13.4417L6.01677 10.9417C5.89973 10.8245 5.83398 10.6656 5.83398 10.5C5.83398 10.3344 5.89973 10.1755 6.01677 10.0583L8.51677 7.55834C8.59316 7.47607 8.69033 7.41593 8.79804 7.38425C8.90574 7.35257 9.02 7.35053 9.12877 7.37834C9.23754 7.40615 9.3368 7.46278 9.41608 7.54227C9.49536 7.62176 9.55174 7.72117 9.57927 7.83001C9.60702 7.93866 9.60504 8.05278 9.57351 8.1604C9.54199 8.26801 9.48209 8.36517 9.4001 8.44167Z" fill="white" />
    <path d="M3.12508 2.16675H16.8751C17.6801 2.16675 18.3334 2.82008 18.3334 3.62508V17.3751C18.3334 17.7619 18.1798 18.1328 17.9063 18.4063C17.6328 18.6798 17.2619 18.8334 16.8751 18.8334H3.12508C2.73831 18.8334 2.36737 18.6798 2.09388 18.4063C1.82039 18.1328 1.66675 17.7619 1.66675 17.3751V3.62508C1.66675 2.82008 2.32008 2.16675 3.12508 2.16675ZM2.91675 3.62508V17.3751C2.91675 17.4901 3.01008 17.5834 3.12508 17.5834H12.5001V3.41675H3.12508C3.06983 3.41675 3.01684 3.4387 2.97777 3.47777C2.9387 3.51684 2.91675 3.56983 2.91675 3.62508ZM13.7501 17.5834H16.8751C16.9303 17.5834 16.9833 17.5615 17.0224 17.5224C17.0615 17.4833 17.0834 17.4303 17.0834 17.3751V3.62508C17.0834 3.56983 17.0615 3.51684 17.0224 3.47777C16.9833 3.4387 16.9303 3.41675 16.8751 3.41675H13.7501V17.5834Z" fill="white" />
    </svg>
    